<?xml version="1.0" encoding="UTF-8"?>
<svg xmlns="http://www.w3.org/2000/svg" version="1.1" viewBox="0 0 1080 1080">
  <defs>
    <style>
      .cls-1, .cls-2 {
        font-size: 48px;
      }

      .cls-1, .cls-2, .cls-3, .cls-4, .cls-5 {
        isolation: isolate;
      }

      .cls-1, .cls-4, .cls-5 {
        font-family: ArialMT, Arial;
      }

      .cls-2 {
        font-family: TimesNewRomanPS-ItalicMT, 'Times New Roman';
        font-style: italic;
      }

      .cls-6, .cls-7 {
        fill: none;
      }

      .cls-6, .cls-7, .cls-8, .cls-9, .cls-10 {
        stroke: #1d1d1b;
        stroke-miterlimit: 10;
      }

      .cls-7 {
        stroke-width: 4px;
      }

      .cls-8 {
        fill: #3aaa35;
      }

      .cls-9 {
        fill: #7d4e24;
      }

      .cls-10 {
        fill: #009fe3;
      }

      .cls-4 {
        font-size: 51.1px;
      }

      .cls-5 {
        font-size: 72px;
      }

      .cls-11 {
        fill: #ffed00;
      }
    </style>
  </defs>
  <!-- Generator: Adobe Illustrator 28.7.1, SVG Export Plug-In . SVG Version: 1.2.0 Build 142)  -->
  <g>
    <g id="Calque_1">
      <g>
        <g id="Lignes">
          <g id="tracées">
            <polygon class="cls-7" points="126.1 490 620 200.2 1052.4 200.2 1052.4 613.8 566.5 903.5 126.1 903.5 126.1 624.7 126.1 490"/>
            <polyline class="cls-7" points="126.1 624.7 618.7 338.5 1052.4 335"/>
            <polyline class="cls-7" points="126.1 719.8 618.7 432.1 1052.4 432.1"/>
            <polyline class="cls-7" points="126.1 812.7 618.7 522.9 1052.4 522.9"/>
            <polyline class="cls-7" points="126.1 535.4 618.7 244.1 1052.4 244.1"/>
          </g>
        </g>
        <g id="year2021">
          <g id="_x32_021">
            <path class="cls-10" d="M292.1,482.2v370.9c0,14.8,9.3,27.3,21.8,29.4,75.9,12.3,132,6,166.6-1.8,23.6-5.4,40.6-29.6,40.6-57.8v-351.6"/>
            <path class="cls-10" d="M292.1,482.2s117.8,43.9,228.9-11c0,0-123.1-42.3-228.9,11Z"/>
          </g>
        </g>
        <g id="year2023">
          <g id="_x32_023">
            <path id="_x32_023-2" class="cls-11" d="M644.3,697.5s133.7-12.5,121.2,15.2l1.2,21.7s-74,13.5-122.3,8.7"/>
            <path class="cls-6" d="M641.5,716.5c12,8.9,122.6-3,122.6-3"/>
          </g>
        </g>
        <g id="year2024">
          <g id="_x32_024">
            <path class="cls-8" d="M665.6,345.9c18.1,6.9,39.3,12.9,63.2,16.2,70.3,9.6,128.4-9.8,163-25.6,0,0-115.1-53.2-226.2,9.4h0Z"/>
            <path class="cls-8" d="M664.2,344.4v297.6c0,8.5,4.2,16.2,10.8,19.7,19.2,10.1,70.3,22.2,200.3-5.3,8.8-1.9,15.2-10.8,15.2-21.2v-300s-98.4,61-226.2,9.4h0Z"/>
          </g>
        </g>
        <g id="year2022">
          <path id="_x32_022" class="cls-9" d="M521,812.7s100.7,1.6,122-20.4v-110.6c0-.8-.6-1.3-1.2-1.2-4,1.7-9.9,4-17,6.1-2.3.7-3.7,1-6.5,1.8-10.6,2.8-18.2,5.2-19.8,5.6-6.5,1.9-23.5,4.7-69.8,8.6-6.7.2-7.7.4-7.7.5,0,1,68.8-1.2,115.3-19.4,3.2-1.3,6.7-2.8,6.7-4.6-.3-7.5-62.8-10.6-122-12"/>
        </g>
        <g id="Calque_8">
          <g class="cls-3">
            <text class="cls-1" transform="translate(36.5 778.4) rotate(-90.4)"><tspan x="0" y="0">New charges station</tspan></text>
          </g>
          <g class="cls-3">
            <text class="cls-1" transform="translate(68.9 864.6)"><tspan x="0" y="0">20</tspan></text>
          </g>
          <g class="cls-3">
            <text class="cls-1" transform="translate(69.8 817.5)"><tspan x="0" y="0">40</tspan></text>
          </g>
          <g class="cls-3">
            <text class="cls-1" transform="translate(68.8 773.2)"><tspan x="0" y="0">60</tspan></text>
          </g>
          <g class="cls-3">
            <text class="cls-1" transform="translate(66.8 732.3) rotate(-.4)"><tspan x="0" y="0">80</tspan></text>
          </g>
          <g class="cls-3">
            <text class="cls-1" transform="translate(52.1 687.3) rotate(-.4)"><tspan x="0" y="0">100</tspan></text>
          </g>
          <g class="cls-3">
            <text class="cls-1" transform="translate(49.7 640.2)"><tspan x="0" y="0">120</tspan></text>
          </g>
          <g class="cls-3">
            <text class="cls-1" transform="translate(50.6 595.7)"><tspan x="0" y="0">140</tspan></text>
          </g>
          <g class="cls-3">
            <text class="cls-1" transform="translate(49.7 550.9)"><tspan x="0" y="0">160</tspan></text>
          </g>
          <g class="cls-3">
            <text class="cls-1" transform="translate(51.8 504.1)"><tspan x="0" y="0">180</tspan></text>
          </g>
        </g>
        <g id="Calque_9">
          <g id="btn2024" class="cls-3">
            <text class="cls-1" transform="translate(973.5 692.1)"><tspan x="0" y="0">2024</tspan></text>
          </g>
          <g id="btn2021" class="cls-3">
            <text class="cls-5" transform="translate(630.8 920.8)"><tspan x="0" y="0">2021</tspan></text>
          </g>
          <g id="btn2022" class="cls-3">
            <text class="cls-4" transform="translate(760 842.2) scale(.9 1)"><tspan x="0" y="0">2022</tspan></text>
          </g>
          <g id="btn2023" class="cls-3">
            <text class="cls-1" transform="translate(862.6 778.3)"><tspan x="0" y="0">2023</tspan></text>
          </g>
        </g>
      </g>
    </g>
    <g id="Titre">
      <g id="Titre-2" data-name="Titre">
        <g class="cls-3">
          <text class="cls-2" id="titre0" transform="translate(61.9 131.9)"><tspan x="0" y="0">Representation of news charging station per years</tspan></text>
        </g>
      </g>
    </g>
  </g>
</svg>